<svg class="icon" viewBox="0 0 1024 1024" version="1.1" xmlns="http://www.w3.org/2000/svg" width="24" height="24"><path d="M690.83 60.48H130.04c-36.54 0-66.26 29.94-66.26 66.26v152.65c0 36.59 29.71 66.26 66.26 66.26h143.93V332.4c0-36.57 29.69-66.26 66.26-66.26H143.29V139.99h534.29v126.15h79.51v-139.4c0-36.32-29.67-66.26-66.26-66.26M331.75 550.51c2.9 0.26 5.54 0.52 8.46 0.52h337.36v-0.52H331.75z" fill="#111"></path><path d="M894.36 266.13H340.22c-36.57 0-66.26 29.69-66.26 66.26v152.39c0 33.67 25.18 61.49 57.79 65.74h345.83v0.52h216.78c36.59 0 66.26-29.66 66.26-66.26V332.39c0-36.57-29.67-66.26-66.26-66.26m-13.25 205.4H353.47V345.64h527.64v125.89z" fill="#111"></path><path d="M677.58 551.03v125.63H143.29V550.51h188.44c-32.58-4.24-57.77-32.07-57.77-65.74V471H130.04c-36.54 0-66.26 29.69-66.26 66.26v152.65c0 36.31 29.71 66.26 66.26 66.26h560.79c36.59 0 66.26-29.94 66.26-66.26V551.03h-79.51z m13.25-80.02H353.47v0.52h345.85c-2.9-0.26-5.57-0.52-8.49-0.52" fill="#111"></path><path d="M894.31 961.56H340.14c-36.54 0-66.26-29.71-66.26-66.26V742.81c0-36.54 29.71-66.26 66.26-66.26h554.17c36.54 0 66.26 29.71 66.26 66.26V895.3c-0.01 36.55-29.72 66.26-66.26 66.26m-540.92-79.51h527.67V756.06H353.39v125.99z" fill="#111" opacity=".6"></path></svg>
